<?xml version="1.0" encoding="UTF-8" standalone="no"?>
<!-- Created with Inkscape (http://www.inkscape.org/) -->
<svg
   xmlns:dc="http://purl.org/dc/elements/1.1/"
   xmlns:cc="http://creativecommons.org/ns#"
   xmlns:rdf="http://www.w3.org/1999/02/22-rdf-syntax-ns#"
   xmlns:svg="http://www.w3.org/2000/svg"
   xmlns="http://www.w3.org/2000/svg"
   xmlns:sodipodi="http://sodipodi.sourceforge.net/DTD/sodipodi-0.dtd"
   xmlns:inkscape="http://www.inkscape.org/namespaces/inkscape"
   width="100"
   height="100"
   id="svg2"
   sodipodi:version="0.32"
   inkscape:version="0.46"
   version="1.0"
   sodipodi:docname="rocket.svg"
   inkscape:output_extension="org.inkscape.output.svg.inkscape"
   inkscape:export-filename="/home/jimmy/art/rocket_ship/images/rocket.png"
   inkscape:export-xdpi="90"
   inkscape:export-ydpi="90">
  <defs
     id="defs4">
    <inkscape:perspective
       sodipodi:type="inkscape:persp3d"
       inkscape:vp_x="0 : 526.18109 : 1"
       inkscape:vp_y="0 : 1000 : 0"
       inkscape:vp_z="744.09448 : 526.18109 : 1"
       inkscape:persp3d-origin="372.04724 : 350.78739 : 1"
       id="perspective10" />
  </defs>
  <sodipodi:namedview
     id="base"
     pagecolor="#ffffff"
     bordercolor="#666666"
     borderopacity="1.0"
     gridtolerance="10000"
     guidetolerance="10"
     objecttolerance="10"
     inkscape:pageopacity="0.0"
     inkscape:pageshadow="2"
     inkscape:zoom="4.94"
     inkscape:cx="50"
     inkscape:cy="50"
     inkscape:document-units="px"
     inkscape:current-layer="layer1"
     showgrid="false"
     inkscape:window-width="645"
     inkscape:window-height="726"
     inkscape:window-x="42"
     inkscape:window-y="25" />
  <metadata
     id="metadata7">
    <rdf:RDF>
      <cc:Work
         rdf:about="">
        <dc:format>image/svg+xml</dc:format>
        <dc:type
           rdf:resource="http://purl.org/dc/dcmitype/StillImage" />
      </cc:Work>
    </rdf:RDF>
  </metadata>
  <g
     inkscape:label="ship"
     inkscape:groupmode="layer"
     id="layer1"
     style="display:inline"
     sodipodi:insensitive="true">
    <path
       style="fill:#0000ff;fill-rule:evenodd;stroke:#000000;stroke-width:1px;stroke-linecap:butt;stroke-linejoin:miter;stroke-opacity:1"
       d="M 28.340082,26.923077 C 28.340082,26.923077 32.625782,27.952872 33.948413,27.224009 C 35.832957,26.185492 37.05142,25.678401 38.420276,24.018203 C 39.864453,22.266653 42.307693,14.170041 42.307693,14.170041 L 43.724697,74.898788 C 43.724697,74.898788 40.413327,74.464477 39.032212,74.741077 C 37.240493,75.099909 35.021122,76.272358 33.49295,77.274209 C 32.02847,78.234304 29.149798,81.174091 29.149798,81.174091 L 28.340082,26.923077 z"
       id="rect2418"
       sodipodi:nodetypes="cssccsscc" />
    <path
       style="fill:#ff0000;fill-rule:evenodd;stroke:#000000;stroke-width:1px;stroke-linecap:butt;stroke-linejoin:miter;stroke-opacity:1"
       d="M 84.361234,55.660729 C 84.361234,36.273685 80.824392,20.539273 76.466497,20.539273 C 72.108603,20.539273 68.571761,36.273685 68.571761,55.660729 C 68.571761,75.047773 72.108603,90.782185 76.466497,90.782185 C 78.41287,90.782185 80.19546,87.643489 81.572306,82.44251 C 82.25172,79.876054 84.654197,80.0463 85.106941,76.604853 C 85.320855,74.978832 92.210633,83.479134 92.119474,81.264893 C 92.062666,79.885039 99.916263,92.767864 99.016313,90.080267 C 96.742573,83.289977 84.361234,58.839265 84.361234,55.660729 z"
       id="path2414"
       sodipodi:nodetypes="csssssssc" />
    <path
       style="fill:#0000ff;fill-rule:evenodd;stroke:#000000;stroke-width:1px;stroke-linecap:butt;stroke-linejoin:miter;stroke-opacity:1;display:inline"
       d="M 82.876131,36.599337 C 81.470516,26.902821 79.021142,20.478544 76.236537,20.478544 C 71.878643,20.478544 68.341801,36.212956 68.341801,55.6 C 68.341801,74.987044 71.878643,90.72146 76.236537,90.72146 C 78.18291,90.72146 79.9655,87.58276 81.342346,82.381781 C 82.02176,79.815325 84.424237,79.985571 84.876981,76.544124 C 85.090895,74.918103 91.980674,83.4184 91.889515,81.204164 C 91.832707,79.82431 99.68631,92.70713 98.78636,90.01954 C 93.616516,72.173568 84.137934,55.136159 82.876131,36.599337 z"
       id="path2429"
       sodipodi:nodetypes="csssssscc" />
    <path
       style="fill:#0000ff;fill-rule:evenodd;stroke:#000000;stroke-width:1px;stroke-linecap:butt;stroke-linejoin:miter;stroke-opacity:1"
       d="M 72.064777,26.821861 C 72.064777,26.821861 67.779077,27.851656 66.456446,27.122793 C 64.571902,26.084276 63.353439,25.577185 61.984583,23.916987 C 60.540406,22.165437 58.097166,14.068825 58.097166,14.068825 L 56.680162,74.797568 C 56.680162,74.797568 59.991532,74.363258 61.372647,74.639858 C 63.164366,74.998698 65.383737,76.171138 66.911909,77.172998 C 68.376389,78.133088 71.255061,81.072878 71.255061,81.072878 L 72.064777,26.821861 z"
       id="path2421"
       sodipodi:nodetypes="cssccsscc" />
    <path
       style="fill:#ff0000;fill-rule:evenodd;stroke:#000000;stroke-width:1px;stroke-linecap:butt;stroke-linejoin:miter;stroke-opacity:1"
       d="M 84.234818,55.463158 C 84.234818,74.850202 80.697976,90.584614 76.340081,90.584614 C 71.982187,90.584614 68.445345,74.850202 68.445345,55.463158 C 68.445345,36.076114 71.982187,20.341702 76.340081,20.341702 C 80.697976,20.341702 84.234818,36.076114 84.234818,55.463158 z"
       id="path2387" />
    <path
       style="fill:#ff0000;fill-rule:evenodd;stroke:#000000;stroke-width:1px;stroke-linecap:butt;stroke-linejoin:miter;stroke-opacity:1"
       d="M 61.133602,42.408905 C 61.133602,64.589472 56.191091,82.591091 50.101213,82.591091 C 44.011334,82.591091 39.068824,64.589472 39.068824,42.408905 C 39.068824,20.228338 44.011334,2.2267189 50.101213,2.2267189 C 56.191091,2.2267189 61.133602,20.228338 61.133602,42.408905 z"
       id="path2383" />
    <path
       style="fill:#0000ff;fill-rule:evenodd;stroke:#000000;stroke-width:1px;stroke-linecap:butt;stroke-linejoin:miter;stroke-opacity:1"
       d="M 17.374781,36.566138 C 18.780396,26.869622 21.22977,20.445345 24.014375,20.445345 C 28.372269,20.445345 31.909111,36.179757 31.909111,55.566801 C 31.909111,74.953845 28.372269,90.688257 24.014375,90.688257 C 22.068002,90.688257 20.285412,87.549561 18.908566,82.348582 C 18.229152,79.782126 15.826675,79.952372 15.373931,76.510925 C 15.160017,74.884904 8.2702386,83.385206 8.3613976,81.170965 C 8.4182056,79.791111 0.56460565,92.673936 1.4645537,89.986339 C 6.6343963,72.140369 16.112978,55.10296 17.374781,36.566138 z"
       id="path2385"
       sodipodi:nodetypes="csssssscc" />
    <path
       style="fill:#ff0000;fill-rule:evenodd;stroke:#000000;stroke-width:1px;stroke-linecap:butt;stroke-linejoin:miter;stroke-opacity:1"
       d="M 31.959514,55.870446 C 31.959514,75.25749 28.422672,90.991902 24.064777,90.991902 C 19.706883,90.991902 16.170041,75.25749 16.170041,55.870446 C 16.170041,36.483402 19.706883,20.74899 24.064777,20.74899 C 28.422672,20.74899 31.959514,36.483402 31.959514,55.870446 z"
       id="path2416" />
    <path
       sodipodi:type="arc"
       style="fill:#4d4d4d;fill-rule:evenodd;stroke:#000000;stroke-width:1px;stroke-linecap:butt;stroke-linejoin:miter;stroke-opacity:1"
       id="path2423"
       sodipodi:cx="52.125507"
       sodipodi:cy="32.186234"
       sodipodi:rx="5.3643723"
       sodipodi:ry="17.408907"
       d="M 57.48988,32.186234 A 5.3643723,17.408907 0 1 1 46.761135,32.186234 A 5.3643723,17.408907 0 1 1 57.48988,32.186234 z"
       transform="translate(-2.0242914,-4.2510121)" />
  </g>
</svg>
