<?xml version="1.0" encoding="UTF-8" standalone="no"?>
<!-- Created with Inkscape (http://www.inkscape.org/) -->
<svg
   xmlns:dc="http://purl.org/dc/elements/1.1/"
   xmlns:cc="http://creativecommons.org/ns#"
   xmlns:rdf="http://www.w3.org/1999/02/22-rdf-syntax-ns#"
   xmlns:svg="http://www.w3.org/2000/svg"
   xmlns="http://www.w3.org/2000/svg"
   xmlns:sodipodi="http://sodipodi.sourceforge.net/DTD/sodipodi-0.dtd"
   xmlns:inkscape="http://www.inkscape.org/namespaces/inkscape"
   width="50"
   height="50"
   id="svg2455"
   sodipodi:version="0.32"
   inkscape:version="0.46"
   version="1.0"
   sodipodi:docname="smoke_cloud.svg"
   inkscape:output_extension="org.inkscape.output.svg.inkscape">
  <defs
     id="defs2457">
    <inkscape:perspective
       sodipodi:type="inkscape:persp3d"
       inkscape:vp_x="0 : 526.18109 : 1"
       inkscape:vp_y="0 : 1000 : 0"
       inkscape:vp_z="744.09448 : 526.18109 : 1"
       inkscape:persp3d-origin="372.04724 : 350.78739 : 1"
       id="perspective2463" />
  </defs>
  <sodipodi:namedview
     id="base"
     pagecolor="#ffffff"
     bordercolor="#666666"
     borderopacity="1.0"
     gridtolerance="10000"
     guidetolerance="10"
     objecttolerance="10"
     inkscape:pageopacity="0.0"
     inkscape:pageshadow="2"
     inkscape:zoom="9.88"
     inkscape:cx="25"
     inkscape:cy="25"
     inkscape:document-units="px"
     inkscape:current-layer="layer1"
     showgrid="false"
     inkscape:window-width="645"
     inkscape:window-height="726"
     inkscape:window-x="436"
     inkscape:window-y="74" />
  <metadata
     id="metadata2460">
    <rdf:RDF>
      <cc:Work
         rdf:about="">
        <dc:format>image/svg+xml</dc:format>
        <dc:type
           rdf:resource="http://purl.org/dc/dcmitype/StillImage" />
      </cc:Work>
    </rdf:RDF>
  </metadata>
  <g
     inkscape:label="Layer 1"
     inkscape:groupmode="layer"
     id="layer1">
    <path
       style="fill:#1a1a1a;fill-rule:evenodd;stroke:#000000;stroke-width:1px;stroke-linecap:butt;stroke-linejoin:miter;stroke-opacity:1"
       d="M 20.9375 2.1875 C 17.857925 2.1875 15.234218 4.5264806 14.125 7.8125 C 13.02161 7.1563616 11.709008 6.78125 10.3125 6.78125 C 6.3456983 6.78125 3.125 9.8537448 3.125 13.625 C 3.125 16.241749 4.6945749 18.508784 6.96875 19.65625 C 5.7295302 20.986265 4.96875 22.700689 4.96875 24.59375 C 4.96875 25.764811 5.2378283 26.88426 5.75 27.875 C 3.3206713 29.17993 1.71875 31.367702 1.71875 33.84375 C 1.71875 37.838487 5.8566045 41.093749 10.96875 41.09375 C 11.288259 41.09375 11.626293 41.087221 11.9375 41.0625 C 13.13653 45.409877 18.117833 48.687498 24.125 48.6875 C 30.687719 48.6875 36.051561 44.791495 36.5625 39.84375 C 38.268952 39.685821 39.800991 38.714481 40.90625 37.21875 C 41.101249 37.235972 41.301331 37.25 41.5 37.25 C 45.857895 37.25 49.40625 33.039701 49.40625 27.84375 C 49.40625 25.22873 48.508002 22.862577 47.0625 21.15625 C 48.511437 20.321182 49.40625 19.156118 49.40625 17.875 C 49.40625 16.478855 48.308742 15.219779 46.625 14.375 C 47.354288 13.493132 47.78125 12.457071 47.78125 11.34375 C 47.78125 8.1591346 44.339904 5.5625 40.09375 5.5625 C 38.591673 5.5625 37.184715 5.9097321 36 6.46875 C 34.743605 5.0453349 32.952554 4.15625 30.96875 4.15625 C 29.377632 4.15625 27.916105 4.7263824 26.75 5.6875 C 25.397058 3.5721853 23.298433 2.1875 20.9375 2.1875 z "
       id="path2465" />
  </g>
</svg>
